# xmcd
# Track frame offsets:
# 150
# 14305
# 28732
# 43257
# 57020
# 74542
# 90060
# 106327
# 121045
# 138307
#
# Disc length: 2103 seconds
# Revision: 0
# Processed by: cddbd v1.4PL0 Copyright (c) Steve Scherf et al.
# Submitted via: VisiTrax 2.9.5.180 - For more info visit www.synapsa.com
#
DISCID=7a08350a
DTITLE=Sherwood Lumsden - All I need
DYEAR=1996
DGENRE=
TTITLE0=One night at a time
TTITLE1=I know a good love
TTITLE2=All I need
TTITLE3=Out of my misery
TTITLE4=They call this the blues
TTITLE5=Rocking chair
TTITLE6=The storm
TTITLE7=Forever
TTITLE8=My home is in your heart
TTITLE9=Before dark
EXTD=
EXTT0=
EXTT1=
EXTT2=
EXTT3=
EXTT4=
EXTT5=
EXTT6=
EXTT7=
EXTT8=
EXTT9=
PLAYORDER=
